<svg width="29" height="29" viewBox="0 0 29 29" fill="none" xmlns="http://www.w3.org/2000/svg">
<rect x="1" y="1" width="27" height="27" rx="3" fill="#B0CFCE"/>
<rect x="1" y="1" width="27" height="27" rx="3" stroke="#81A69F" stroke-width="2"/>
<rect x="3" y="3" width="7" height="7" rx="1" fill="#F0FDFF"/>
<rect x="11" y="3" width="7" height="7" rx="1" fill="#F0FDFF"/>
<rect x="19" y="3" width="7" height="7" rx="1" fill="#F0FDFF"/>
<rect x="3" y="11" width="7" height="7" rx="1" fill="#F0FDFF"/>
<rect x="11" y="11" width="7" height="7" rx="1" fill="#F0FDFF"/>
<rect x="19" y="11" width="7" height="7" rx="1" fill="#F0FDFF"/>
<rect x="3" y="19" width="7" height="7" rx="1" fill="#F0FDFF"/>
<rect x="11" y="19" width="7" height="7" rx="1" fill="#F0FDFF"/>
<rect x="19" y="19" width="7" height="7" rx="1" fill="#F0FDFF"/>
<path d="M6.5 4.5V6.5M6.5 8.5V6.5M6.5 6.5H8.5M6.5 6.5H4.5" stroke="#81A69F" stroke-linecap="round"/>
<path d="M6.5 12.5V14.5M6.5 16.5V14.5M6.5 14.5H8.5M6.5 14.5H4.5" stroke="#81A69F" stroke-linecap="round"/>
<path d="M7.91421 13.0858L6.5 14.5M5.08579 15.9142L6.5 14.5M6.5 14.5L7.91421 15.9142M6.5 14.5L5.08579 13.0858" stroke="#81A69F" stroke-linecap="round"/>
<path d="M16.5 6.5H12.5" stroke="#81A69F" stroke-linecap="round"/>
<path d="M23.9142 5.08578L21.0858 7.91421" stroke="#81A69F" stroke-linecap="round"/>
<path d="M14.5 12.5V14.5M14.5 16.5V14.5M14.5 14.5H16.5M14.5 14.5H12.5" stroke="#81A69F" stroke-linecap="round"/>
<path d="M24.5 14.5H20.5" stroke="#81A69F" stroke-linecap="round"/>
<path d="M8.5 22.5H4.5" stroke="#81A69F" stroke-linecap="round"/>
<path d="M15.9157 21.0822L13.0873 23.9107" stroke="#81A69F" stroke-linecap="round"/>
<path d="M22.5 20.5V22.5M22.5 24.5V22.5M22.5 22.5H24.5M22.5 22.5H20.5" stroke="#81A69F" stroke-linecap="round"/>
</svg>
