<svg width="28" height="28" viewBox="0 0 28 28" fill="none" xmlns="http://www.w3.org/2000/svg">
<rect width="28" height="28" rx="14" fill="white"/>
<path d="M6.69174 22.505C6.07507 22.505 5.60141 22.2425 5.27074 21.7175C4.94024 21.1925 4.91391 20.6523 5.19174 20.0968L8.20824 13.98L11.9417 16.455L14 15.4468L16.0582 16.4718L19.7582 14.03L22.8 20.0883C23.0778 20.6439 23.0542 21.1856 22.7292 21.7133C22.4042 22.2411 21.9278 22.505 21.3 22.505H6.69174Z" fill="#597C4B"/>
<path d="M11.1667 3.33325V10.5L12.8332 9.5V6.16675H17.0667C17.2167 6.16675 17.3334 6.10142 17.4167 5.97075C17.5001 5.84025 17.5056 5.70275 17.4332 5.55825L16.9 4.525C16.8667 4.46383 16.85 4.39992 16.85 4.33325C16.85 4.26658 16.8667 4.20275 16.9 4.14175L17.4332 3.10825C17.5056 2.96392 17.5001 2.82642 17.4167 2.69575C17.3334 2.56525 17.2167 2.5 17.0667 2.5H12C11.7612 2.5 11.5626 2.57917 11.4042 2.7375C11.2459 2.89583 11.1667 3.09442 11.1667 3.33325Z" fill="#D03939"/>
<path d="M9.95002 10.4417L8.94177 12.475L12.0583 14.5332L14 13.5582L15.925 14.55L18.9918 12.5L17.9668 10.4167C17.8168 10.1389 17.6098 9.91667 17.3458 9.75C17.0819 9.58333 16.7917 9.5 16.475 9.5H11.4333C11.1166 9.5 10.8264 9.58333 10.5625 9.75C10.2987 9.91667 10.0945 10.1472 9.95002 10.4417Z" fill="#95A8A9"/>
</svg>
